<svg width="140" height="40" viewBox="0 0 140 40" fill="none" xmlns="http://www.w3.org/2000/svg">
<g clip-path="url(#clip0_2441_34540)">
<path d="M0.874643 20L12.4246 0.75H115.575L138.675 39.25H12.4246L0.874643 20Z" fill="#F8990B" stroke="#FFD25E" stroke-width="1.5"/>
<path d="M28.2253 24.5V15.7727H31.7196C32.3617 15.7727 32.8972 15.8679 33.3262 16.0582C33.7551 16.2486 34.0776 16.5128 34.2935 16.8509C34.5094 17.1861 34.6174 17.5724 34.6174 18.0099C34.6174 18.3509 34.5492 18.6506 34.4128 18.9091C34.2765 19.1648 34.089 19.375 33.8503 19.5398C33.6145 19.7017 33.3446 19.8168 33.0407 19.8849V19.9702C33.373 19.9844 33.6841 20.0781 33.9739 20.2514C34.2665 20.4247 34.5037 20.6676 34.6855 20.9801C34.8674 21.2898 34.9583 21.6591 34.9583 22.0881C34.9583 22.5511 34.8432 22.9645 34.6131 23.3281C34.3858 23.6889 34.0492 23.9744 33.6032 24.1847C33.1571 24.3949 32.6074 24.5 31.954 24.5H28.2253ZM30.0705 22.9915H31.5748C32.089 22.9915 32.464 22.8935 32.6998 22.6974C32.9355 22.4986 33.0534 22.2344 33.0534 21.9048C33.0534 21.6634 32.9952 21.4503 32.8787 21.2656C32.7623 21.081 32.5961 20.9361 32.3801 20.831C32.1671 20.7259 31.9128 20.6733 31.6174 20.6733H30.0705V22.9915ZM30.0705 19.4247H31.4384C31.6912 19.4247 31.9157 19.3807 32.1117 19.2926C32.3105 19.2017 32.4668 19.0739 32.5804 18.9091C32.6969 18.7443 32.7551 18.5469 32.7551 18.3168C32.7551 18.0014 32.6429 17.7472 32.4185 17.554C32.1969 17.3608 31.8816 17.2642 31.4725 17.2642H30.0705V19.4247ZM40.3223 21.7131V17.9545H42.1376V24.5H40.3947V23.3111H40.3265C40.1788 23.6946 39.9331 24.0028 39.5893 24.2358C39.2484 24.4687 38.8322 24.5852 38.3407 24.5852C37.9032 24.5852 37.5183 24.4858 37.1859 24.2869C36.8535 24.0881 36.5936 23.8054 36.4061 23.4389C36.2214 23.0724 36.1277 22.6335 36.1248 22.1222V17.9545H37.9402V21.7983C37.943 22.1847 38.0467 22.4901 38.2512 22.7145C38.4558 22.9389 38.7299 23.0511 39.0737 23.0511C39.2924 23.0511 39.497 23.0014 39.6873 22.902C39.8777 22.7997 40.0311 22.6491 40.1475 22.4503C40.2669 22.2514 40.3251 22.0057 40.3223 21.7131ZM44.7104 26.9545C44.4803 26.9545 44.2644 26.9361 44.0627 26.8991C43.8638 26.8651 43.699 26.821 43.5684 26.767L43.9775 25.4119C44.1905 25.4773 44.3823 25.5128 44.5527 25.5185C44.726 25.5241 44.8752 25.4844 45.0002 25.3991C45.128 25.3139 45.2317 25.169 45.3113 24.9645L45.4178 24.6875L43.0698 17.9545H44.9789L46.334 22.7614H46.4022L47.7701 17.9545H49.6919L47.1479 25.2074C47.0257 25.5597 46.8596 25.8665 46.6493 26.1278C46.4419 26.392 46.1792 26.5952 45.861 26.7372C45.5428 26.8821 45.1593 26.9545 44.7104 26.9545ZM53.4324 24.5V15.7727H56.8755C57.5346 15.7727 58.0971 15.8906 58.563 16.1264C59.0318 16.3594 59.3883 16.6903 59.6326 17.1193C59.8798 17.5455 60.0034 18.0469 60.0034 18.6236C60.0034 19.2031 59.8784 19.7017 59.6284 20.1193C59.3784 20.5341 59.0162 20.8523 58.5417 21.0739C58.0701 21.2955 57.4991 21.4062 56.8287 21.4062H54.5233V19.9233H56.5304C56.8826 19.9233 57.1752 19.875 57.4082 19.7784C57.6412 19.6818 57.8145 19.5369 57.9281 19.3438C58.0446 19.1506 58.1028 18.9105 58.1028 18.6236C58.1028 18.3338 58.0446 18.0895 57.9281 17.8906C57.8145 17.6918 57.6397 17.5412 57.4039 17.4389C57.171 17.3338 56.877 17.2812 56.5218 17.2812H55.2775V24.5H53.4324ZM58.1454 20.5284L60.3145 24.5H58.2775L56.1554 20.5284H58.1454ZM63.1397 24.6236C62.7221 24.6236 62.35 24.5511 62.0233 24.4062C61.6966 24.2585 61.438 24.0412 61.2477 23.7543C61.0602 23.4645 60.9664 23.1037 60.9664 22.6719C60.9664 22.3082 61.0332 22.0028 61.1667 21.7557C61.3002 21.5085 61.4821 21.3097 61.7122 21.1591C61.9423 21.0085 62.2037 20.8949 62.4963 20.8182C62.7917 20.7415 63.1014 20.6875 63.4252 20.6562C63.8059 20.6165 64.1127 20.5795 64.3457 20.5455C64.5787 20.5085 64.7477 20.4545 64.8528 20.3835C64.9579 20.3125 65.0105 20.2074 65.0105 20.0682V20.0426C65.0105 19.7727 64.9252 19.5639 64.7548 19.4162C64.5872 19.2685 64.3485 19.1946 64.0389 19.1946C63.7122 19.1946 63.4522 19.267 63.2591 19.4119C63.0659 19.554 62.938 19.733 62.8755 19.9489L61.1966 19.8125C61.2818 19.4148 61.4494 19.071 61.6994 18.7812C61.9494 18.4886 62.2718 18.2642 62.6667 18.108C63.0645 17.9489 63.5247 17.8693 64.0474 17.8693C64.411 17.8693 64.7591 17.9119 65.0914 17.9972C65.4267 18.0824 65.7235 18.2145 65.9821 18.3935C66.2434 18.5724 66.4494 18.8026 66.6 19.0838C66.7505 19.3622 66.8258 19.696 66.8258 20.0852V24.5H65.1042V23.5923H65.0531C64.948 23.7969 64.8074 23.9773 64.6312 24.1335C64.4551 24.2869 64.2434 24.4077 63.9963 24.4957C63.7491 24.581 63.4636 24.6236 63.1397 24.6236ZM63.6596 23.3707C63.9267 23.3707 64.1625 23.3182 64.367 23.2131C64.5716 23.1051 64.7321 22.9602 64.8485 22.7784C64.965 22.5966 65.0233 22.3906 65.0233 22.1605V21.4659C64.9664 21.5028 64.8883 21.5369 64.7889 21.5682C64.6923 21.5966 64.5829 21.6236 64.4608 21.6491C64.3386 21.6719 64.2164 21.6932 64.0943 21.7131C63.9721 21.7301 63.8613 21.7457 63.7619 21.7599C63.5488 21.7912 63.3627 21.8409 63.2037 21.9091C63.0446 21.9773 62.921 22.0696 62.8329 22.1861C62.7449 22.2997 62.7008 22.4418 62.7008 22.6122C62.7008 22.8594 62.7903 23.0483 62.9693 23.179C63.1511 23.3068 63.3812 23.3707 63.6596 23.3707ZM71.1916 24.6278C70.5211 24.6278 69.9444 24.4858 69.4615 24.2017C68.9814 23.9148 68.612 23.517 68.3535 23.0085C68.0978 22.5 67.97 21.9148 67.97 21.2528C67.97 20.5824 68.0993 19.9943 68.3578 19.4886C68.6191 18.9801 68.9899 18.5838 69.47 18.2997C69.9501 18.0128 70.5211 17.8693 71.1831 17.8693C71.7541 17.8693 72.2541 17.973 72.6831 18.1804C73.112 18.3878 73.4515 18.679 73.7015 19.054C73.9515 19.429 74.0893 19.8693 74.1149 20.375H72.4018C72.3535 20.0483 72.2257 19.7855 72.0183 19.5866C71.8137 19.3849 71.5453 19.2841 71.2129 19.2841C70.9316 19.2841 70.6859 19.3608 70.4757 19.5142C70.2683 19.6648 70.1064 19.8849 69.9899 20.1747C69.8734 20.4645 69.8152 20.8153 69.8152 21.2273C69.8152 21.6449 69.872 22 69.9856 22.2926C70.1021 22.5852 70.2654 22.8082 70.4757 22.9616C70.6859 23.1151 70.9316 23.1918 71.2129 23.1918C71.4203 23.1918 71.6064 23.1491 71.7711 23.0639C71.9387 22.9787 72.0765 22.8551 72.1845 22.6932C72.2953 22.5284 72.3677 22.331 72.4018 22.1009H74.1149C74.0865 22.6009 73.9501 23.0412 73.7058 23.4219C73.4643 23.7997 73.1305 24.0952 72.7044 24.3082C72.2782 24.5213 71.774 24.6278 71.1916 24.6278ZM78.2601 24.6278C77.5868 24.6278 77.0073 24.4915 76.5215 24.2188C76.0385 23.9432 75.6664 23.554 75.405 23.0511C75.1436 22.5455 75.013 21.9474 75.013 21.2571C75.013 20.5838 75.1436 19.9929 75.405 19.4844C75.6664 18.9759 76.0343 18.5795 76.5087 18.2955C76.986 18.0114 77.5456 17.8693 78.1877 17.8693C78.6195 17.8693 79.0215 17.9389 79.3936 18.0781C79.7686 18.2145 80.0953 18.4205 80.3738 18.696C80.655 18.9716 80.8738 19.3182 81.03 19.7358C81.1863 20.1506 81.2644 20.6364 81.2644 21.1932V21.6918H75.7374V20.5668H79.5556C79.5556 20.3054 79.4988 20.0739 79.3851 19.8722C79.2715 19.6705 79.1138 19.5128 78.9121 19.3991C78.7132 19.2827 78.4817 19.2244 78.2175 19.2244C77.9419 19.2244 77.6976 19.2884 77.4846 19.4162C77.2743 19.5412 77.1096 19.7102 76.9902 19.9233C76.8709 20.1335 76.8098 20.3679 76.807 20.6264V21.696C76.807 22.0199 76.8667 22.2997 76.986 22.5355C77.1081 22.7713 77.28 22.9531 77.5016 23.081C77.7232 23.2088 77.986 23.2727 78.29 23.2727C78.4917 23.2727 78.6763 23.2443 78.8439 23.1875C79.0115 23.1307 79.155 23.0455 79.2743 22.9318C79.3936 22.8182 79.4846 22.679 79.5471 22.5142L81.226 22.625C81.1408 23.0284 80.9661 23.3807 80.7019 23.6818C80.4405 23.9801 80.1025 24.2131 79.6877 24.3807C79.2757 24.5455 78.7999 24.6278 78.2601 24.6278ZM85.2605 24.5V15.7727H88.7037C89.3656 15.7727 89.9295 15.8991 90.3954 16.152C90.8613 16.402 91.2164 16.75 91.4608 17.196C91.7079 17.6392 91.8315 18.1506 91.8315 18.7301C91.8315 19.3097 91.7065 19.821 91.4565 20.2642C91.2065 20.7074 90.8443 21.0526 90.3699 21.2997C89.8983 21.5469 89.3272 21.6705 88.6568 21.6705H86.4622V20.1918H88.3585C88.7136 20.1918 89.0062 20.1307 89.2363 20.0085C89.4693 19.8835 89.6426 19.7116 89.7562 19.4929C89.8727 19.2713 89.9309 19.017 89.9309 18.7301C89.9309 18.4403 89.8727 18.1875 89.7562 17.9716C89.6426 17.7528 89.4693 17.5838 89.2363 17.4645C89.0034 17.3423 88.7079 17.2812 88.35 17.2812H87.1056V24.5H85.2605ZM94.6866 24.6236C94.269 24.6236 93.8968 24.5511 93.5701 24.4062C93.2434 24.2585 92.9849 24.0412 92.7946 23.7543C92.6071 23.4645 92.5133 23.1037 92.5133 22.6719C92.5133 22.3082 92.5801 22.0028 92.7136 21.7557C92.8471 21.5085 93.0289 21.3097 93.2591 21.1591C93.4892 21.0085 93.7505 20.8949 94.0431 20.8182C94.3386 20.7415 94.6483 20.6875 94.9721 20.6562C95.3528 20.6165 95.6596 20.5795 95.8926 20.5455C96.1255 20.5085 96.2946 20.4545 96.3997 20.3835C96.5048 20.3125 96.5574 20.2074 96.5574 20.0682V20.0426C96.5574 19.7727 96.4721 19.5639 96.3017 19.4162C96.1341 19.2685 95.8954 19.1946 95.5858 19.1946C95.2591 19.1946 94.9991 19.267 94.8059 19.4119C94.6127 19.554 94.4849 19.733 94.4224 19.9489L92.7434 19.8125C92.8287 19.4148 92.9963 19.071 93.2463 18.7812C93.4963 18.4886 93.8187 18.2642 94.2136 18.108C94.6113 17.9489 95.0716 17.8693 95.5943 17.8693C95.9579 17.8693 96.3059 17.9119 96.6383 17.9972C96.9735 18.0824 97.2704 18.2145 97.5289 18.3935C97.7903 18.5724 97.9963 18.8026 98.1468 19.0838C98.2974 19.3622 98.3727 19.696 98.3727 20.0852V24.5H96.6511V23.5923H96.6C96.4949 23.7969 96.3542 23.9773 96.1781 24.1335C96.002 24.2869 95.7903 24.4077 95.5431 24.4957C95.296 24.581 95.0105 24.6236 94.6866 24.6236ZM95.2065 23.3707C95.4735 23.3707 95.7093 23.3182 95.9139 23.2131C96.1184 23.1051 96.2789 22.9602 96.3954 22.7784C96.5119 22.5966 96.5701 22.3906 96.5701 22.1605V21.4659C96.5133 21.5028 96.4352 21.5369 96.3358 21.5682C96.2392 21.5966 96.1298 21.6236 96.0076 21.6491C95.8855 21.6719 95.7633 21.6932 95.6412 21.7131C95.519 21.7301 95.4082 21.7457 95.3088 21.7599C95.0957 21.7912 94.9096 21.8409 94.7505 21.9091C94.5914 21.9773 94.4679 22.0696 94.3798 22.1861C94.2917 22.2997 94.2477 22.4418 94.2477 22.6122C94.2477 22.8594 94.3372 23.0483 94.5162 23.179C94.698 23.3068 94.9281 23.3707 95.2065 23.3707ZM105.227 19.821L103.565 19.9233C103.537 19.7812 103.476 19.6534 103.382 19.5398C103.288 19.4233 103.165 19.331 103.011 19.2628C102.861 19.1918 102.68 19.1562 102.47 19.1562C102.189 19.1562 101.952 19.2159 101.758 19.3352C101.565 19.4517 101.469 19.608 101.469 19.804C101.469 19.9602 101.531 20.0923 101.656 20.2003C101.781 20.3082 101.996 20.3949 102.3 20.4602L103.484 20.6989C104.121 20.8295 104.595 21.0398 104.907 21.3295C105.22 21.6193 105.376 22 105.376 22.4716C105.376 22.9006 105.25 23.277 104.997 23.6009C104.747 23.9247 104.403 24.1776 103.966 24.3594C103.531 24.5384 103.03 24.6278 102.461 24.6278C101.595 24.6278 100.905 24.4474 100.39 24.0866C99.8791 23.723 99.5794 23.2287 99.4913 22.6037L101.277 22.5099C101.331 22.7741 101.461 22.9759 101.669 23.1151C101.876 23.2514 102.142 23.3196 102.466 23.3196C102.784 23.3196 103.04 23.2585 103.233 23.1364C103.429 23.0114 103.528 22.8509 103.531 22.6548C103.528 22.4901 103.459 22.3551 103.322 22.25C103.186 22.142 102.976 22.0597 102.692 22.0028L101.558 21.777C100.919 21.6491 100.443 21.4276 100.131 21.1122C99.8208 20.7969 99.666 20.3949 99.666 19.9062C99.666 19.4858 99.7797 19.1236 100.007 18.8196C100.237 18.5156 100.559 18.2812 100.974 18.1165C101.392 17.9517 101.881 17.8693 102.44 17.8693C103.267 17.8693 103.917 18.044 104.392 18.3935C104.869 18.7429 105.148 19.2187 105.227 19.821ZM111.965 19.821L110.303 19.9233C110.275 19.7812 110.214 19.6534 110.12 19.5398C110.026 19.4233 109.903 19.331 109.749 19.2628C109.599 19.1918 109.419 19.1562 109.208 19.1562C108.927 19.1562 108.69 19.2159 108.497 19.3352C108.303 19.4517 108.207 19.608 108.207 19.804C108.207 19.9602 108.269 20.0923 108.394 20.2003C108.519 20.3082 108.734 20.3949 109.038 20.4602L110.222 20.6989C110.859 20.8295 111.333 21.0398 111.646 21.3295C111.958 21.6193 112.115 22 112.115 22.4716C112.115 22.9006 111.988 23.277 111.735 23.6009C111.485 23.9247 111.142 24.1776 110.704 24.3594C110.269 24.5384 109.768 24.6278 109.2 24.6278C108.333 24.6278 107.643 24.4474 107.129 24.0866C106.617 23.723 106.318 23.2287 106.23 22.6037L108.015 22.5099C108.069 22.7741 108.2 22.9759 108.407 23.1151C108.615 23.2514 108.88 23.3196 109.204 23.3196C109.522 23.3196 109.778 23.2585 109.971 23.1364C110.167 23.0114 110.267 22.8509 110.269 22.6548C110.267 22.4901 110.197 22.3551 110.061 22.25C109.924 22.142 109.714 22.0597 109.43 22.0028L108.296 21.777C107.657 21.6491 107.181 21.4276 106.869 21.1122C106.559 20.7969 106.404 20.3949 106.404 19.9062C106.404 19.4858 106.518 19.1236 106.745 18.8196C106.975 18.5156 107.298 18.2812 107.713 18.1165C108.13 17.9517 108.619 17.8693 109.178 17.8693C110.005 17.8693 110.656 18.044 111.13 18.3935C111.607 18.7429 111.886 19.2187 111.965 19.821Z" fill="#F4F4F4"/>
</g>
<defs>
<clipPath id="clip0_2441_34540">
<rect width="140" height="40" fill="white"/>
</clipPath>
</defs>
</svg>
