<svg width="116" height="36" viewBox="0 0 116 36" fill="none" xmlns="http://www.w3.org/2000/svg">
<path d="M1.17473 18L11.654 1H104.346L114.825 18L104.346 35H11.654L1.17473 18Z" fill="#F8990B" stroke="#FFD25E" stroke-width="2"/>
<path d="M43.8341 23V12.8182H48.0798C48.8421 12.8182 49.4801 12.9259 49.9939 13.1413C50.5109 13.3568 50.8987 13.6584 51.1572 14.0462C51.4191 14.4339 51.55 14.883 51.55 15.3935C51.55 15.7812 51.4688 16.1276 51.3064 16.4325C51.144 16.7341 50.9202 16.9844 50.6352 17.1832C50.3502 17.3821 50.0204 17.5213 49.6459 17.6009V17.7003C50.0568 17.7202 50.4363 17.8312 50.7844 18.0334C51.1357 18.2356 51.4174 18.5173 51.6295 18.8786C51.8416 19.2365 51.9477 19.6607 51.9477 20.1513C51.9477 20.6982 51.8085 21.187 51.5301 21.6179C51.2517 22.0455 50.849 22.3835 50.322 22.6321C49.795 22.8774 49.1553 23 48.403 23H43.8341ZM46.295 21.0163H47.8163C48.3499 21.0163 48.7427 20.9152 48.9946 20.7131C49.2498 20.5109 49.3774 20.2292 49.3774 19.8679C49.3774 19.6061 49.3161 19.3807 49.1934 19.1918C49.0708 18.9995 48.8968 18.852 48.6714 18.7493C48.4461 18.6432 48.1759 18.5902 47.8611 18.5902H46.295V21.0163ZM46.295 17.0043H47.6572C47.9257 17.0043 48.1643 16.9595 48.3731 16.87C48.5819 16.7805 48.7443 16.6513 48.8604 16.4822C48.9797 16.3132 49.0393 16.1094 49.0393 15.8707C49.0393 15.5294 48.9184 15.2609 48.6764 15.0653C48.4345 14.8698 48.108 14.772 47.697 14.772H46.295V17.0043ZM59.2907 12.8182H61.7467V19.3857C61.7467 20.1446 61.5661 20.8059 61.2048 21.3693C60.8435 21.9295 60.3398 22.3636 59.6934 22.6719C59.0471 22.9768 58.2964 23.1293 57.4413 23.1293C56.5763 23.1293 55.8206 22.9768 55.1743 22.6719C54.528 22.3636 54.0258 21.9295 53.6679 21.3693C53.3099 20.8059 53.1309 20.1446 53.1309 19.3857V12.8182H55.5919V19.1719C55.5919 19.5232 55.6681 19.8364 55.8206 20.1115C55.9764 20.3866 56.1934 20.602 56.4719 20.7578C56.7503 20.9136 57.0734 20.9915 57.4413 20.9915C57.8092 20.9915 58.1307 20.9136 58.4058 20.7578C58.6842 20.602 58.9013 20.3866 59.0571 20.1115C59.2129 19.8364 59.2907 19.5232 59.2907 19.1719V12.8182ZM62.782 12.8182H65.5313L67.684 17.0788H67.7735L69.9262 12.8182H72.6755L68.9518 19.5994V23H66.5058V19.5994L62.782 12.8182Z" fill="white"/>
</svg>
