<svg width="157" height="36" viewBox="0 0 157 36" fill="none" xmlns="http://www.w3.org/2000/svg">
<g clip-path="url(#clip0_2363_39966)">
<path d="M1.76619 35L22.1662 1H134.834L155.234 35H1.76619Z" fill="#F8990B" stroke="#FFD25E" stroke-width="2"/>
<path d="M49.3205 23V12.8182H53.3375C54.1098 12.8182 54.7677 12.9657 55.3113 13.2607C55.8548 13.5523 56.2691 13.9583 56.5542 14.4787C56.8425 14.9957 56.9867 15.5923 56.9867 16.2685C56.9867 16.9446 56.8409 17.5412 56.5492 18.0582C56.2575 18.5753 55.8349 18.978 55.2814 19.2663C54.7312 19.5547 54.065 19.6989 53.2828 19.6989H50.7225V17.9737H52.9348C53.3491 17.9737 53.6905 17.9025 53.959 17.7599C54.2308 17.6141 54.4329 17.4136 54.5655 17.1584C54.7014 16.8999 54.7694 16.6032 54.7694 16.2685C54.7694 15.9304 54.7014 15.6354 54.5655 15.3835C54.4329 15.1283 54.2308 14.9311 53.959 14.7919C53.6872 14.6494 53.3425 14.5781 52.9249 14.5781H51.4732V23H49.3205ZM61.7022 23.1491C60.9167 23.1491 60.2406 22.9901 59.6738 22.6719C59.1104 22.3504 58.6762 21.8963 58.3713 21.3097C58.0663 20.7197 57.9139 20.022 57.9139 19.2166C57.9139 18.4311 58.0663 17.7417 58.3713 17.1484C58.6762 16.5552 59.1054 16.0928 59.6589 15.7614C60.2157 15.4299 60.8687 15.2642 61.6177 15.2642C62.1215 15.2642 62.5905 15.3454 63.0247 15.5078C63.4622 15.6669 63.8433 15.9072 64.1681 16.2287C64.4963 16.5502 64.7515 16.9545 64.9338 17.4418C65.1161 17.9257 65.2072 18.4924 65.2072 19.142V19.7237H58.7591V18.4112H63.2136C63.2136 18.1063 63.1473 17.8362 63.0147 17.6009C62.8822 17.3655 62.6982 17.1816 62.4629 17.049C62.2309 16.9131 61.9608 16.8452 61.6525 16.8452C61.331 16.8452 61.046 16.9197 60.7974 17.0689C60.5521 17.2147 60.3599 17.4119 60.2207 17.6605C60.0815 17.9058 60.0102 18.1792 60.0069 18.4808V19.7287C60.0069 20.1065 60.0765 20.433 60.2157 20.7081C60.3583 20.9832 60.5588 21.1953 60.8173 21.3445C61.0758 21.4936 61.3824 21.5682 61.737 21.5682C61.9724 21.5682 62.1878 21.535 62.3833 21.4688C62.5789 21.4025 62.7463 21.303 62.8855 21.1705C63.0247 21.0379 63.1307 20.8755 63.2037 20.6832L65.1625 20.8125C65.063 21.2831 64.8592 21.6941 64.551 22.0455C64.246 22.3935 63.8516 22.6652 63.3677 22.8608C62.8871 23.053 62.332 23.1491 61.7022 23.1491ZM66.5893 23V15.3636H68.6426V16.696H68.7221C68.8613 16.2221 69.095 15.8641 69.4231 15.6222C69.7512 15.3769 70.1291 15.2543 70.5566 15.2543C70.6627 15.2543 70.777 15.2609 70.8997 15.2741C71.0223 15.2874 71.13 15.3056 71.2228 15.3288V17.2081C71.1234 17.1783 70.9859 17.1518 70.8102 17.1286C70.6345 17.1054 70.4738 17.0938 70.3279 17.0938C70.0164 17.0938 69.738 17.1617 69.4927 17.2976C69.2508 17.4302 69.0585 17.6158 68.916 17.8544C68.7768 18.093 68.7072 18.3681 68.7072 18.6797V23H66.5893ZM78.6715 17.5412L76.7326 17.6605C76.6995 17.4948 76.6282 17.3456 76.5188 17.2131C76.4094 17.0772 76.2653 16.9695 76.0863 16.8899C75.9106 16.8071 75.7002 16.7656 75.4549 16.7656C75.1268 16.7656 74.85 16.8352 74.6246 16.9744C74.3993 17.1103 74.2866 17.2926 74.2866 17.5213C74.2866 17.7036 74.3595 17.8577 74.5053 17.9837C74.6512 18.1096 74.9014 18.2107 75.256 18.2869L76.6381 18.5653C77.3806 18.7178 77.9341 18.9631 78.2987 19.3011C78.6632 19.6392 78.8455 20.0833 78.8455 20.6335C78.8455 21.134 78.698 21.5732 78.4031 21.951C78.1114 22.3288 77.7103 22.6238 77.1999 22.8359C76.6928 23.0447 76.1078 23.1491 75.445 23.1491C74.4341 23.1491 73.6287 22.9387 73.0288 22.5178C72.4322 22.0935 72.0825 21.5168 71.9798 20.7876L74.0629 20.6783C74.1258 20.9865 74.2783 21.2218 74.5202 21.3842C74.7622 21.5433 75.0721 21.6229 75.4499 21.6229C75.8211 21.6229 76.1194 21.5516 76.3448 21.4091C76.5735 21.2633 76.6895 21.076 76.6928 20.8473C76.6895 20.6551 76.6083 20.4976 76.4492 20.375C76.2901 20.2491 76.0449 20.1529 75.7134 20.0866L74.391 19.8232C73.6452 19.674 73.0901 19.4155 72.7255 19.0476C72.3642 18.6797 72.1836 18.2107 72.1836 17.6406C72.1836 17.1501 72.3162 16.7275 72.5813 16.3729C72.8498 16.0182 73.226 15.7448 73.7099 15.5526C74.1971 15.3603 74.7672 15.2642 75.4201 15.2642C76.3846 15.2642 77.1436 15.468 77.6971 15.8757C78.2539 16.2834 78.5787 16.8385 78.6715 17.5412ZM83.6294 23.1491C82.8572 23.1491 82.1893 22.9851 81.6259 22.657C81.0658 22.3255 80.6332 21.8648 80.3283 21.2749C80.0234 20.6816 79.8709 19.9938 79.8709 19.2116C79.8709 18.4228 80.0234 17.7334 80.3283 17.1435C80.6332 16.5502 81.0658 16.0895 81.6259 15.7614C82.1893 15.4299 82.8572 15.2642 83.6294 15.2642C84.4017 15.2642 85.0679 15.4299 85.628 15.7614C86.1915 16.0895 86.6257 16.5502 86.9306 17.1435C87.2355 17.7334 87.388 18.4228 87.388 19.2116C87.388 19.9938 87.2355 20.6816 86.9306 21.2749C86.6257 21.8648 86.1915 22.3255 85.628 22.657C85.0679 22.9851 84.4017 23.1491 83.6294 23.1491ZM83.6394 21.5085C83.9907 21.5085 84.284 21.4091 84.5194 21.2102C84.7547 21.008 84.932 20.733 85.0513 20.3849C85.1739 20.0369 85.2353 19.6409 85.2353 19.1967C85.2353 18.7526 85.1739 18.3565 85.0513 18.0085C84.932 17.6605 84.7547 17.3854 84.5194 17.1832C84.284 16.9811 83.9907 16.88 83.6394 16.88C83.2847 16.88 82.9864 16.9811 82.7445 17.1832C82.5059 17.3854 82.3252 17.6605 82.2026 18.0085C82.0833 18.3565 82.0236 18.7526 82.0236 19.1967C82.0236 19.6409 82.0833 20.0369 82.2026 20.3849C82.3252 20.733 82.5059 21.008 82.7445 21.2102C82.9864 21.4091 83.2847 21.5085 83.6394 21.5085ZM90.883 18.5852V23H88.7651V15.3636H90.7836V16.7109H90.873C91.0421 16.2668 91.3255 15.9155 91.7232 15.657C92.1209 15.3951 92.6032 15.2642 93.1699 15.2642C93.7002 15.2642 94.1626 15.3802 94.557 15.6122C94.9514 15.8442 95.258 16.1757 95.4767 16.6065C95.6955 17.0341 95.8049 17.5445 95.8049 18.1378V23H93.687V18.5156C93.6903 18.0483 93.571 17.6837 93.329 17.4219C93.0871 17.1567 92.754 17.0241 92.3297 17.0241C92.0447 17.0241 91.7928 17.0855 91.574 17.2081C91.3586 17.3307 91.1896 17.5097 91.0669 17.745C90.9476 17.977 90.8863 18.2571 90.883 18.5852ZM99.6516 23.1442C99.1644 23.1442 98.7302 23.0597 98.3491 22.8906C97.9679 22.7183 97.6663 22.4647 97.4442 22.13C97.2255 21.7919 97.1161 21.371 97.1161 20.8672C97.1161 20.4429 97.194 20.0866 97.3498 19.7983C97.5056 19.5099 97.7177 19.2779 97.9862 19.1023C98.2546 18.9266 98.5595 18.794 98.9009 18.7045C99.2456 18.6151 99.6069 18.5521 99.9847 18.5156C100.429 18.4692 100.787 18.4261 101.059 18.3864C101.33 18.3433 101.528 18.2803 101.65 18.1974C101.773 18.1146 101.834 17.992 101.834 17.8295V17.7997C101.834 17.4848 101.735 17.2412 101.536 17.0689C101.34 16.8965 101.062 16.8104 100.701 16.8104C100.319 16.8104 100.016 16.8949 99.7908 17.0639C99.5655 17.2296 99.4163 17.4384 99.3434 17.6903L97.3846 17.5312C97.484 17.0672 97.6796 16.6662 97.9712 16.3281C98.2629 15.9867 98.6391 15.7249 99.0998 15.5426C99.5638 15.357 100.101 15.2642 100.711 15.2642C101.135 15.2642 101.541 15.3139 101.929 15.4134C102.32 15.5128 102.666 15.6669 102.968 15.8757C103.273 16.0845 103.513 16.353 103.689 16.6811C103.864 17.0059 103.952 17.3954 103.952 17.8494V23H101.944V21.9411H101.884C101.761 22.1797 101.597 22.3902 101.392 22.5724C101.186 22.7514 100.939 22.8923 100.651 22.995C100.363 23.0945 100.029 23.1442 99.6516 23.1442ZM100.258 21.6825C100.57 21.6825 100.845 21.6212 101.083 21.4986C101.322 21.3726 101.509 21.2036 101.645 20.9915C101.781 20.7794 101.849 20.5391 101.849 20.2706V19.4602C101.783 19.5033 101.692 19.5431 101.576 19.5795C101.463 19.6127 101.335 19.6442 101.193 19.674C101.05 19.7005 100.908 19.7254 100.765 19.7486C100.623 19.7685 100.493 19.7867 100.377 19.8033C100.129 19.8397 99.9118 19.8977 99.7262 19.9773C99.5406 20.0568 99.3964 20.1645 99.2937 20.3004C99.1909 20.433 99.1396 20.5987 99.1396 20.7976C99.1396 21.0859 99.244 21.3063 99.4528 21.4588C99.6649 21.608 99.9334 21.6825 100.258 21.6825ZM107.713 12.8182V23H105.595V12.8182H107.713Z" fill="#F4F4F4"/>
</g>
<defs>
<clipPath id="clip0_2363_39966">
<rect width="157" height="36" fill="white"/>
</clipPath>
</defs>
</svg>
