<svg width="68" height="28" viewBox="0 0 68 28" fill="none" xmlns="http://www.w3.org/2000/svg">
<g clip-path="url(#clip0_1701_16571)">
<path d="M0.874643 14L8.82464 0.75H59.1754L67.1254 14L59.1754 27.25H8.82464L0.874643 14Z" fill="#1CB1D9" stroke="#65DCFC" stroke-width="1.5"/>
<path d="M14.7173 17.5V10.2273H17.4446C18.0033 10.2273 18.4721 10.3243 18.8509 10.5185C19.232 10.7126 19.5196 10.9848 19.7138 11.3352C19.9103 11.6832 20.0085 12.0893 20.0085 12.5533C20.0085 13.0196 19.9091 13.4245 19.7102 13.7678C19.5137 14.1087 19.2237 14.3726 18.8402 14.5597C18.4567 14.7443 17.9856 14.8366 17.4268 14.8366H15.4844V13.7429H17.2493C17.576 13.7429 17.8435 13.6979 18.0518 13.608C18.2602 13.5156 18.4141 13.3819 18.5135 13.2067C18.6153 13.0291 18.6662 12.8113 18.6662 12.5533C18.6662 12.2952 18.6153 12.075 18.5135 11.8928C18.4117 11.7081 18.2566 11.5684 18.0483 11.4737C17.84 11.3767 17.5713 11.3281 17.2422 11.3281H16.0348V17.5H14.7173ZM18.4744 14.2045L20.2749 17.5H18.8047L17.0362 14.2045H18.4744ZM23.5011 17.6065C22.9542 17.6065 22.4819 17.4929 22.0842 17.2656C21.6888 17.036 21.3846 16.7116 21.1715 16.2926C20.9585 15.8712 20.8519 15.3752 20.8519 14.8047C20.8519 14.2436 20.9585 13.7512 21.1715 13.3274C21.387 12.9013 21.6876 12.5698 22.0735 12.3331C22.4594 12.094 22.9128 11.9744 23.4336 11.9744C23.7698 11.9744 24.087 12.0289 24.3853 12.1378C24.686 12.2443 24.9511 12.41 25.1808 12.6349C25.4128 12.8598 25.5951 13.1463 25.7276 13.4943C25.8602 13.84 25.9265 14.2519 25.9265 14.7301V15.1243H21.4556V14.2578H24.6942C24.6919 14.0116 24.6386 13.7926 24.5344 13.6009C24.4303 13.4067 24.2847 13.254 24.0977 13.1428C23.913 13.0315 23.6976 12.9759 23.4513 12.9759C23.1886 12.9759 22.9577 13.0398 22.7589 13.1676C22.56 13.2931 22.4049 13.4588 22.2937 13.6648C22.1848 13.8684 22.1291 14.0921 22.1268 14.3359V15.0923C22.1268 15.4096 22.1848 15.6818 22.3008 15.9091C22.4168 16.134 22.579 16.3068 22.7873 16.4276C22.9956 16.5459 23.2395 16.6051 23.5188 16.6051C23.7058 16.6051 23.8751 16.5791 24.0266 16.527C24.1781 16.4725 24.3095 16.3932 24.4208 16.2891C24.5321 16.1849 24.6161 16.0559 24.6729 15.902L25.8732 16.0369C25.7975 16.3542 25.6531 16.6312 25.44 16.8679C25.2293 17.1023 24.9594 17.2846 24.6303 17.4148C24.3013 17.5426 23.9248 17.6065 23.5011 17.6065ZM29.7377 12.0455V13.0398H26.6021V12.0455H29.7377ZM27.3762 10.7386H28.6618V15.8594C28.6618 16.0322 28.6878 16.1648 28.7399 16.2571C28.7943 16.3471 28.8654 16.4086 28.9529 16.4418C29.0405 16.4749 29.1376 16.4915 29.2441 16.4915C29.3246 16.4915 29.398 16.4856 29.4643 16.4737C29.533 16.4619 29.585 16.4512 29.6206 16.4418L29.8372 17.4467C29.7685 17.4704 29.6703 17.4964 29.5424 17.5249C29.417 17.5533 29.2631 17.5698 29.0808 17.5746C28.7588 17.584 28.4688 17.5355 28.2108 17.429C27.9527 17.3201 27.7479 17.152 27.5964 16.9247C27.4473 16.6974 27.3739 16.4134 27.3762 16.0724V10.7386ZM30.8129 17.5V12.0455H32.0593V12.9545H32.1161C32.2156 12.6397 32.386 12.397 32.6275 12.2266C32.8713 12.0537 33.1495 11.9673 33.462 11.9673C33.533 11.9673 33.6123 11.9709 33.6999 11.978C33.7899 11.9827 33.8645 11.991 33.9237 12.0028V13.1854C33.8692 13.1664 33.7828 13.1499 33.6644 13.1357C33.5484 13.1191 33.436 13.1108 33.3271 13.1108C33.0927 13.1108 32.882 13.1617 32.695 13.2635C32.5103 13.3629 32.3647 13.5014 32.2582 13.679C32.1516 13.8565 32.0984 14.0613 32.0984 14.2933V17.5H30.8129ZM34.7777 17.5V12.0455H36.0632V17.5H34.7777ZM35.424 11.2713C35.2204 11.2713 35.0452 11.2038 34.8984 11.0689C34.7517 10.9316 34.6783 10.767 34.6783 10.5753C34.6783 10.3812 34.7517 10.2166 34.8984 10.0817C35.0452 9.94437 35.2204 9.87571 35.424 9.87571C35.63 9.87571 35.8052 9.94437 35.9496 10.0817C36.0964 10.2166 36.1697 10.3812 36.1697 10.5753C36.1697 10.767 36.0964 10.9316 35.9496 11.0689C35.8052 11.2038 35.63 11.2713 35.424 11.2713ZM39.7999 17.6065C39.253 17.6065 38.7807 17.4929 38.383 17.2656C37.9876 17.036 37.6834 16.7116 37.4703 16.2926C37.2573 15.8712 37.1507 15.3752 37.1507 14.8047C37.1507 14.2436 37.2573 13.7512 37.4703 13.3274C37.6858 12.9013 37.9864 12.5698 38.3723 12.3331C38.7582 12.094 39.2116 11.9744 39.7324 11.9744C40.0686 11.9744 40.3858 12.0289 40.6841 12.1378C40.9848 12.2443 41.2499 12.41 41.4796 12.6349C41.7116 12.8598 41.8939 13.1463 42.0265 13.4943C42.159 13.84 42.2253 14.2519 42.2253 14.7301V15.1243H37.7544V14.2578H40.9931C40.9907 14.0116 40.9374 13.7926 40.8333 13.6009C40.7291 13.4067 40.5835 13.254 40.3965 13.1428C40.2118 13.0315 39.9964 12.9759 39.7502 12.9759C39.4874 12.9759 39.2566 13.0398 39.0577 13.1676C38.8588 13.2931 38.7038 13.4588 38.5925 13.6648C38.4836 13.8684 38.428 14.0921 38.4256 14.3359V15.0923C38.4256 15.4096 38.4836 15.6818 38.5996 15.9091C38.7156 16.134 38.8778 16.3068 39.0861 16.4276C39.2944 16.5459 39.5383 16.6051 39.8176 16.6051C40.0047 16.6051 40.1739 16.5791 40.3255 16.527C40.477 16.4725 40.6084 16.3932 40.7196 16.2891C40.8309 16.1849 40.915 16.0559 40.9718 15.902L42.1721 16.0369C42.0963 16.3542 41.9519 16.6312 41.7388 16.8679C41.5281 17.1023 41.2582 17.2846 40.9292 17.4148C40.6001 17.5426 40.2237 17.6065 39.7999 17.6065ZM48.0288 12.0455L46.0863 17.5H44.6658L42.7234 12.0455H44.0941L45.3477 16.0973H45.4045L46.6616 12.0455H48.0288ZM51.1475 17.6065C50.6007 17.6065 50.1284 17.4929 49.7306 17.2656C49.3353 17.036 49.0311 16.7116 48.818 16.2926C48.6049 15.8712 48.4984 15.3752 48.4984 14.8047C48.4984 14.2436 48.6049 13.7512 48.818 13.3274C49.0334 12.9013 49.3341 12.5698 49.72 12.3331C50.1059 12.094 50.5592 11.9744 51.0801 11.9744C51.4163 11.9744 51.7335 12.0289 52.0318 12.1378C52.3324 12.2443 52.5976 12.41 52.8272 12.6349C53.0592 12.8598 53.2415 13.1463 53.3741 13.4943C53.5067 13.84 53.573 14.2519 53.573 14.7301V15.1243H49.1021V14.2578H52.3407C52.3384 14.0116 52.2851 13.7926 52.1809 13.6009C52.0768 13.4067 51.9312 13.254 51.7441 13.1428C51.5595 13.0315 51.344 12.9759 51.0978 12.9759C50.835 12.9759 50.6042 13.0398 50.4054 13.1676C50.2065 13.2931 50.0514 13.4588 49.9402 13.6648C49.8313 13.8684 49.7756 14.0921 49.7733 14.3359V15.0923C49.7733 15.4096 49.8313 15.6818 49.9473 15.9091C50.0633 16.134 50.2254 16.3068 50.4338 16.4276C50.6421 16.5459 50.8859 16.6051 51.1653 16.6051C51.3523 16.6051 51.5216 16.5791 51.6731 16.527C51.8246 16.4725 51.956 16.3932 52.0673 16.2891C52.1786 16.1849 52.2626 16.0559 52.3194 15.902L53.5197 16.0369C53.444 16.3542 53.2995 16.6312 53.0865 16.8679C52.8758 17.1023 52.6059 17.2846 52.2768 17.4148C51.9477 17.5426 51.5713 17.6065 51.1475 17.6065Z" fill="#F4F4F4"/>
</g>
<defs>
<clipPath id="clip0_1701_16571">
<rect width="68" height="28" fill="white"/>
</clipPath>
</defs>
</svg>
