<svg width="16" height="16" viewBox="0 0 16 16" fill="none" xmlns="http://www.w3.org/2000/svg">
    <mask id="mask0_2363_39618" style="mask-type:alpha" maskUnits="userSpaceOnUse" x="0" y="0" width="16" height="16">
        <rect width="16" height="16" fill="#D9D9D9" />
    </mask>
    <g mask="url(#mask0_2363_39618)">
        <path
            d="M10.1201 13.3753C8.62327 13.3753 7.35353 12.854 6.31089 11.8113C5.26826 10.7687 4.74694 9.49895 4.74694 8.00209C4.74694 6.51327 5.26826 5.24553 6.31089 4.19887C7.35353 3.15223 8.62327 2.62891 10.1201 2.62891C11.6089 2.62891 12.8767 3.15223 13.9233 4.19887C14.97 5.24553 15.4933 6.51327 15.4933 8.00209C15.4933 9.49895 14.97 10.7687 13.9233 11.8113C12.8767 12.854 11.6089 13.3753 10.1201 13.3753ZM11.5611 10.5054L12.6107 9.45571L10.8585 7.70354V5.34339H9.38173V8.31332L11.5611 10.5054ZM1.17448 6.07382V4.59702H4.08028V6.07382H1.17448ZM0.507812 8.74049V7.26369H4.08028V8.74049H0.507812ZM1.17448 11.4072V9.93036H4.08028V11.4072H1.17448Z"
            fill="#F4F4F4" />
    </g>
</svg>