<svg width="50" height="39" viewBox="0 0 50 39" fill="none" xmlns="http://www.w3.org/2000/svg">
<path d="M25.8989 38.7917C25.8989 38.7917 25.9318 38.7771 25.9957 38.7532L26.2802 38.6449L26.7443 38.4731L27.04 38.3641C27.145 38.3238 27.2557 38.2763 27.3728 38.228L28.1538 37.9039C28.4372 37.7813 28.7393 37.6361 29.0705 37.4871C29.4017 37.3382 29.7351 37.1562 30.0961 36.9746C30.4571 36.7931 30.8352 36.5759 31.2373 36.3564C31.6393 36.1369 32.0331 35.8791 32.4567 35.6241C32.6706 35.4973 32.8746 35.3502 33.0892 35.2082C33.3037 35.0663 33.5225 34.9212 33.7408 34.7683C33.9592 34.6154 34.174 34.4505 34.3958 34.288C34.5078 34.2056 34.6207 34.1251 34.7318 34.0409C34.8429 33.9566 34.9477 33.8641 35.0626 33.778C35.2794 33.5985 35.5128 33.4247 35.7347 33.2438L36.4006 32.6613C36.6305 32.4709 36.8496 32.2583 37.076 32.0514C37.3024 31.8444 37.5298 31.6347 37.7477 31.4079L38.4165 30.7326C38.6304 30.4998 38.8503 30.2583 39.0702 30.0168C40.8698 28.0118 42.3898 25.7738 43.5892 23.3629C43.731 23.0711 43.8722 22.7812 44.0127 22.493C44.1411 22.1997 44.2668 21.91 44.3934 21.6221C44.5199 21.3342 44.6294 21.0465 44.7426 20.7617C44.8557 20.4768 44.9707 20.1957 45.0636 19.9114C45.1565 19.6272 45.2594 19.3495 45.3554 19.0741C45.4514 18.7986 45.5244 18.5182 45.6075 18.249C45.6488 18.1127 45.6896 17.9779 45.7299 17.8444C45.7777 17.7074 45.8005 17.5755 45.8363 17.4419C45.9047 17.1747 45.9723 16.9129 46.039 16.6565C46.1017 16.3971 46.1528 16.1398 46.2088 15.8903C46.2649 15.6409 46.3219 15.3933 46.3608 15.1487C46.441 14.6618 46.5385 14.1962 46.5906 13.7456C46.6427 13.295 46.7176 12.8677 46.747 12.4646C46.7764 12.0614 46.8291 11.6755 46.8392 11.3148C46.8492 10.954 46.8805 10.6206 46.8894 10.3117C46.8983 10.0029 46.8986 9.72322 46.9022 9.46935C46.9033 9.34218 46.9062 9.22329 46.9053 9.11078C46.9044 8.99827 46.9006 8.89398 46.8962 8.80025C46.8918 8.60503 46.8874 8.44058 46.8849 8.30601L46.88 7.99691C46.879 7.92894 46.8808 7.89269 46.8808 7.89269C46.8808 7.89269 46.8854 7.92812 46.8878 7.99657L46.9011 8.29936C46.9063 8.4349 46.9135 8.6003 46.9203 8.79326C46.9246 8.89158 46.9279 8.99724 46.9334 9.10523C46.939 9.21322 46.9328 9.3371 46.9336 9.46339L46.9277 10.3082C46.9216 10.6134 46.8994 10.9515 46.8862 11.3127C46.8729 11.6739 46.8289 12.0612 46.794 12.4625C46.7591 12.8638 46.7007 13.2968 46.644 13.7473C46.5873 14.1979 46.4972 14.6644 46.4179 15.1532C46.3803 15.3983 46.3192 15.6445 46.2673 15.8953C46.2153 16.1462 46.161 16.4039 46.0997 16.6638C46.0385 16.9237 45.9657 17.1857 45.8974 17.4524C45.863 17.5865 45.83 17.721 45.7924 17.8554C45.7548 17.9899 45.7122 18.1256 45.6713 18.2605C45.5868 18.5384 45.5064 18.8178 45.4178 19.0943C45.3291 19.3708 45.2243 19.6493 45.1255 19.933C45.0266 20.2167 44.9144 20.4988 44.8054 20.7851C44.6964 21.0714 44.5868 21.3637 44.4561 21.6501C44.3254 21.9365 44.2039 22.2277 44.075 22.5224C43.946 22.8171 43.7933 23.1005 43.6505 23.395C42.4515 25.8136 40.9278 28.0576 39.1212 30.0653C38.8999 30.3063 38.6823 30.5455 38.4657 30.782L37.795 31.4582C37.5756 31.6891 37.3447 31.8914 37.12 32.1021C36.8954 32.3127 36.6773 32.5226 36.4442 32.7134L35.7687 33.2925C35.5489 33.4803 35.3142 33.6536 35.0937 33.8258L34.7612 34.0895C34.6514 34.1742 34.5371 34.2543 34.4251 34.3366L33.7799 34.8157C33.5601 34.9681 33.3405 35.1114 33.1268 35.2552C32.9132 35.3989 32.7055 35.5433 32.4907 35.6682C32.0652 35.9241 31.6681 36.1869 31.2666 36.4005C30.8651 36.614 30.4971 36.8377 30.1264 37.0159C29.7558 37.1942 29.4195 37.3843 29.088 37.5255C28.7565 37.6666 28.4557 37.8169 28.1723 37.9395L27.3877 38.2562C27.2697 38.3027 27.1604 38.3507 27.0539 38.3904L26.7565 38.4958L26.2902 38.6607L26.002 38.7616C25.9331 38.7821 25.8989 38.7917 25.8989 38.7917Z" fill="#181818"/>
<path d="M33.4313 35.3999C32.5699 34.113 32.7103 32.3421 33.464 30.9941C34.2177 29.6461 35.4887 28.6597 36.8221 27.8748C37.3053 29.2728 37.2824 31.0384 36.6011 32.3471C35.9198 33.6558 34.7341 34.5214 33.4313 35.3999Z" fill="#181818"/>
<path d="M33.433 35.4009C33.7341 33.8859 35.0914 32.736 36.5815 32.3162C38.0716 31.8964 39.6728 32.0964 41.175 32.4831C40.528 33.8084 39.2544 35.0413 37.8465 35.482C36.4386 35.9228 34.9809 35.7006 33.433 35.4009Z" fill="#181818"/>
<path d="M40.0785 29.1702C39.1647 28.2108 39.025 26.699 39.4624 25.4528C39.8998 24.2066 40.8262 23.1908 41.8321 22.3364C42.4438 23.441 42.6813 24.9377 42.3007 26.1361C41.9201 27.3344 41.0462 28.2394 40.0771 29.1697" fill="#181818"/>
<path d="M40.0656 29.1708C40.0995 27.8516 41.0733 26.6863 42.2659 26.1152C43.4586 25.5441 44.8364 25.4818 46.1528 25.5871C45.802 26.7973 44.9103 28.0189 43.7876 28.5975C42.665 29.176 41.4064 29.1969 40.0601 29.1688" fill="#181818"/>
<path d="M44.4438 22.1116C43.4859 21.6241 42.9669 20.5057 42.9609 19.4339C42.9549 18.3621 43.3845 17.333 43.9248 16.407C44.6924 17.0864 45.2804 18.1659 45.3161 19.1881C45.3517 20.2103 44.9312 21.138 44.4438 22.1116Z" fill="#181818"/>
<path d="M44.4314 22.1117C44.0972 21.0916 44.5229 19.9366 45.2789 19.1795C46.0349 18.4225 47.07 17.9978 48.1014 17.721C48.1638 18.7417 47.8152 19.919 47.1156 20.6649C46.4159 21.4109 45.4599 21.7678 44.4235 22.1121" fill="#181818"/>
<path d="M46.5328 14.8694C45.6114 14.6267 44.9536 13.7519 44.7491 12.8246C44.5446 11.8973 44.7239 10.9269 45.0156 10.0234C45.8073 10.4699 46.5192 11.2959 46.7349 12.1734C46.9506 13.0508 46.7664 13.9334 46.5273 14.8675" fill="#181818"/>
<path d="M46.5394 14.8737C46.0546 14.0515 46.2131 12.9725 46.7264 12.1723C47.2398 11.3722 48.0554 10.8158 48.9027 10.3856C49.1479 11.258 49.0663 12.3423 48.5997 13.1188C48.1332 13.8952 47.3727 14.3818 46.5399 14.8723" fill="#181818"/>
<path d="M46.981 9.14388C46.981 9.14388 49.122 6.19218 45.9452 4.47948C45.9433 4.48496 43.9973 7.22648 46.981 9.14388Z" fill="#181818"/>
<path d="M30.6479 11.8115L30.6464 11.8159L30.6406 11.8115L30.6421 11.8232L30.6435 11.8217V11.8232L30.6537 11.8202L30.6479 11.8173L30.6523 11.813H30.6552L30.6537 11.81L30.6552 11.8086H30.6406L30.6479 11.8115Z" fill="#181818"/>
<path d="M30.6327 11.826L30.6341 11.81L30.6312 11.8086L30.5703 11.8434L30.6327 11.826Z" fill="#181818"/>
<path d="M30.6848 11.8125L30.6797 11.8159L30.6831 11.8193L30.6848 11.8125Z" fill="#181818"/>
<path d="M30.6484 11.8654L30.6658 11.9814L30.6818 11.8697L30.6644 11.832L30.6484 11.8654Z" fill="#181818"/>
<path d="M23.9361 38.7095C23.9361 38.7095 23.9018 38.7 23.837 38.6783L23.5499 38.5779L23.0818 38.4152L22.7854 38.3104C22.6788 38.2711 22.568 38.224 22.4499 38.1779L21.6657 37.8635C21.3805 37.7424 21.0771 37.6001 20.7487 37.4528C20.4203 37.3054 20.0753 37.1285 19.7086 36.947C19.3419 36.7654 18.9646 36.5538 18.5664 36.3356C18.1683 36.1174 17.7649 35.8626 17.3386 35.6083C17.1247 35.4836 16.9175 35.3382 16.7025 35.197C16.4874 35.0558 16.2668 34.912 16.048 34.7599L15.3878 34.2848C15.2769 34.2023 15.1623 34.1227 15.0509 34.0389C14.9395 33.955 14.8344 33.8628 14.7174 33.7764C14.4999 33.5976 14.2646 33.4251 14.0407 33.2455L13.3646 32.6683C13.1322 32.4779 12.9137 32.2656 12.6866 32.0595C12.4595 31.8533 12.2309 31.6431 12.0108 31.4175L11.3377 30.7438C11.1222 30.512 10.9028 30.2739 10.6797 30.0294C8.8664 28.0279 7.33425 25.7897 6.12515 23.3761L5.69891 22.5046C5.56951 22.2106 5.4414 21.9203 5.31458 21.6337C5.18285 21.3477 5.07545 21.0563 4.96213 20.77C4.84882 20.4837 4.73195 20.2048 4.63891 19.9191C4.54586 19.6333 4.44053 19.3565 4.34352 19.0814C4.24651 18.8063 4.17243 18.5262 4.08689 18.2485C4.03863 18.1117 4.00424 17.9791 3.96429 17.844C3.92434 17.7088 3.89271 17.5753 3.85647 17.4418C3.78723 17.1754 3.71895 16.9117 3.65122 16.654C3.5835 16.3962 3.53742 16.1385 3.48083 15.8861C3.42425 15.6337 3.36733 15.3891 3.32882 15.1441C3.24768 14.6556 3.14713 14.1909 3.09744 13.7391C3.04775 13.2872 2.9713 12.8602 2.94262 12.4548C2.91394 12.0494 2.86028 11.6652 2.84616 11.3054C2.83204 10.9457 2.80633 10.61 2.80086 10.3011C2.79539 9.99216 2.79497 9.71068 2.79314 9.45587C2.79202 9.33007 2.7896 9.20935 2.79193 9.09773L2.80254 8.7862C2.80999 8.59275 2.81514 8.42781 2.81985 8.29226C2.82456 8.15671 2.82897 8.05975 2.83197 7.98944C2.83498 7.91912 2.83858 7.88554 2.83858 7.88554C2.83858 7.88554 2.84055 7.92178 2.83981 7.98975L2.83744 8.29837C2.83548 8.43295 2.8317 8.5974 2.82796 8.79263L2.81874 9.10366C2.81826 9.21617 2.82294 9.33456 2.82454 9.46172L2.83913 10.3045C2.84913 10.6088 2.87443 10.9477 2.89453 11.3068C2.91463 11.666 2.95868 12.0537 2.99099 12.4562C3.02331 12.8588 3.09015 13.2892 3.15083 13.7372C3.2115 14.1852 3.30381 14.6528 3.38721 15.1389C3.42572 15.3839 3.48862 15.6279 3.54197 15.8799C3.59533 16.132 3.65102 16.3863 3.71325 16.6459L3.92029 17.4301C3.95652 17.5635 3.98864 17.6984 4.02811 17.8322C4.06758 17.966 4.11027 18.1003 4.1507 18.2368C4.23762 18.5139 4.31567 18.7834 4.40719 19.0605L4.70209 19.8968C4.80152 20.1787 4.91427 20.4591 5.02621 20.7458C5.13814 21.0326 5.24596 21.3209 5.37858 21.605L5.76243 22.4745C5.90368 22.7612 6.04589 23.0506 6.18908 23.3428C7.39561 25.7503 8.92374 27.983 10.7318 29.9803L11.388 30.6938L12.0579 31.367C12.2767 31.5977 12.5092 31.7973 12.7332 32.0076C12.9571 32.218 13.176 32.427 13.4107 32.6151L14.0854 33.1928C14.3058 33.3798 14.5397 33.5528 14.7608 33.7241C14.8718 33.8112 14.9773 33.9002 15.0924 33.9858C15.2075 34.0714 15.317 34.1497 15.4279 34.2322L16.0858 34.7096C16.3047 34.8617 16.5248 35.0042 16.7376 35.1477C16.9503 35.2912 17.1585 35.4348 17.3728 35.5608C17.7959 35.8148 18.1938 36.0761 18.5947 36.2887C18.9955 36.5013 19.3666 36.726 19.7378 36.9028C20.109 37.0797 20.4432 37.2697 20.7734 37.4133C21.1035 37.557 21.4048 37.7062 21.6913 37.8267L22.4733 38.1481C22.5906 38.196 22.7 38.2436 22.8052 38.2834L23.1012 38.3914L23.5658 38.5616L23.8521 38.6683C23.9031 38.695 23.9361 38.7095 23.9361 38.7095Z" fill="#181818"/>
<path d="M16.3868 35.3469C17.2431 34.057 17.0947 32.2872 16.3361 30.9419C15.5776 29.5966 14.3046 28.6143 12.9672 27.8348C12.4908 29.2339 12.5203 30.9994 13.205 32.3061C13.8898 33.6128 15.0797 34.4736 16.3868 35.3469Z" fill="#181818"/>
<path d="M16.3992 35.3471C16.091 33.8337 14.7311 32.6882 13.2385 32.2742C11.7459 31.8603 10.1487 32.065 8.64844 32.457C9.29888 33.7804 10.5768 35.0088 11.9873 35.4439C13.3978 35.8791 14.8529 35.6523 16.3992 35.3471Z" fill="#181818"/>
<path d="M9.72166 29.1423C10.6316 28.1797 10.7654 26.6674 10.3221 25.4233C9.87875 24.1793 8.95153 23.1658 7.93994 22.316C7.3326 23.4228 7.10225 24.9198 7.48726 26.1167C7.87228 27.3137 8.74934 28.2155 9.72166 29.1423Z" fill="#181818"/>
<path d="M9.73023 29.1416C9.69271 27.8221 8.71474 26.6604 7.51896 26.0941C6.32318 25.5278 4.94686 25.4698 3.63129 25.5798C3.98657 26.7888 4.88257 28.0071 6.00574 28.5821C7.12891 29.1571 8.38851 29.1731 9.73435 29.1401" fill="#181818"/>
<path d="M5.32728 22.097C6.28305 21.6061 6.79763 20.4859 6.79821 19.4146C6.79879 18.3433 6.36678 17.3153 5.82457 16.3908C5.05977 17.0729 4.47458 18.1549 4.44281 19.1772C4.41105 20.1994 4.83633 21.1252 5.32728 22.097Z" fill="#181818"/>
<path d="M5.33458 22.0982C5.66474 21.0769 5.23347 19.924 4.47484 19.1697C3.71621 18.4153 2.68385 17.9884 1.64118 17.7205C1.58268 18.7414 1.93558 19.9174 2.63786 20.6608C3.34014 21.4042 4.29718 21.7577 5.33458 22.0982Z" fill="#181818"/>
<path d="M3.20734 14.8643C4.12749 14.6183 4.78184 13.7412 4.98274 12.8132C5.18364 11.8851 4.9994 10.916 4.70434 10.0135C3.91458 10.4629 3.2074 11.2909 2.99373 12.1695C2.78005 13.0482 2.97023 13.9291 3.21284 14.8623" fill="#181818"/>
<path d="M3.21343 14.8663C3.69506 14.0425 3.5339 12.9636 3.01767 12.1653C2.50145 11.3671 1.68254 10.8141 0.835271 10.3865C0.593422 11.2597 0.679151 12.3436 1.14849 13.1184C1.61783 13.8932 2.37853 14.3774 3.21295 14.865" fill="#181818"/>
<path d="M2.74547 9.13594C2.74547 9.13594 0.5939 6.19201 3.76334 4.46803C3.76527 4.47351 5.72234 7.20747 2.74547 9.13594Z" fill="#181818"/>
<mask id="mask0_2363_39555" style="mask-type:alpha" maskUnits="userSpaceOnUse" x="13" y="4" width="25" height="24">
<rect x="13.0781" y="4" width="24" height="24" fill="#D9D9D9"/>
</mask>
<g mask="url(#mask0_2363_39555)">
<path d="M20.0781 25V23H24.0781V19.9C23.2615 19.7167 22.5323 19.3708 21.8906 18.8625C21.249 18.3542 20.7781 17.7167 20.4781 16.95C19.2281 16.8 18.1823 16.2542 17.3406 15.3125C16.499 14.3708 16.0781 13.2667 16.0781 12V11C16.0781 10.45 16.274 9.97917 16.6656 9.5875C17.0573 9.19583 17.5281 9 18.0781 9H20.0781V7H30.0781V9H32.0781C32.6281 9 33.099 9.19583 33.4906 9.5875C33.8823 9.97917 34.0781 10.45 34.0781 11V12C34.0781 13.2667 33.6573 14.3708 32.8156 15.3125C31.974 16.2542 30.9281 16.8 29.6781 16.95C29.3781 17.7167 28.9073 18.3542 28.2656 18.8625C27.624 19.3708 26.8948 19.7167 26.0781 19.9V23H30.0781V25H20.0781ZM20.0781 14.8V11H18.0781V12C18.0781 12.6333 18.2615 13.2042 18.6281 13.7125C18.9948 14.2208 19.4781 14.5833 20.0781 14.8ZM30.0781 14.8C30.6781 14.5833 31.1615 14.2208 31.5281 13.7125C31.8948 13.2042 32.0781 12.6333 32.0781 12V11H30.0781V14.8Z" fill="#181818"/>
</g>
</svg>
