<svg width="95" height="28" viewBox="0 0 95 28" fill="none" xmlns="http://www.w3.org/2000/svg">
<path fill-rule="evenodd" clip-rule="evenodd" d="M36.3403 8.93481V8.93488L36.3239 8.93481C35.3104 8.93481 34.4888 9.73796 34.4888 10.7287C34.4888 11.7194 35.3104 12.5226 36.3239 12.5226L36.3403 12.5225V12.5232H48.4637V12.5204C49.4162 12.4739 50.1741 11.6895 50.1741 10.7287C50.1741 9.76785 49.4162 8.98344 48.4637 8.93699V8.93481H48.3743H36.3403Z" fill="#F4F4F4"/>
<path fill-rule="evenodd" clip-rule="evenodd" d="M36.1389 20.3126C36.2041 20.3126 36.2685 20.3085 36.3317 20.3006V20.3132H48.4552V20.3101C49.3863 20.2607 50.1263 19.4776 50.1263 18.5187C50.1263 17.5599 49.3863 16.7767 48.4552 16.7273V16.7249H48.3617H36.3317V16.7368C36.2685 16.7289 36.2041 16.7249 36.1389 16.7249C35.2228 16.7249 34.4802 17.528 34.4802 18.5187C34.4802 19.5095 35.2228 20.3126 36.1389 20.3126Z" fill="#F8990B"/>
<path d="M3.12363 2.36389C3.12363 2.58571 3.07232 2.78766 2.96968 2.96975C2.86705 3.14853 2.71476 3.29089 2.51281 3.39683C2.31417 3.50277 2.07249 3.55574 1.78777 3.55574H1.35076V4.6731H0.248301V1.15715H1.78777C2.21816 1.15715 2.54757 1.2664 2.77601 1.48491C3.00776 1.70341 3.12363 1.99641 3.12363 2.36389ZM1.66362 2.68669C1.89206 2.68669 2.00627 2.57909 2.00627 2.36389C2.00627 2.1487 1.89206 2.0411 1.66362 2.0411H1.35076V2.68669H1.66362ZM9.93411 4.6731L9.27363 3.41172H9.26866V4.6731H8.1662V1.15715H9.80499C10.0897 1.15715 10.333 1.20846 10.535 1.3111C10.7369 1.41042 10.8876 1.54781 10.9869 1.72328C11.0895 1.89543 11.1409 2.09076 11.1409 2.30927C11.1409 2.54433 11.0746 2.7529 10.9422 2.93499C10.8131 3.11707 10.626 3.24785 10.3811 3.3273L11.1458 4.6731H9.93411ZM9.26866 2.67675H9.70567C9.81161 2.67675 9.89107 2.65358 9.94404 2.60723C9.99701 2.55757 10.0235 2.48142 10.0235 2.37879C10.0235 2.28609 9.99536 2.21326 9.93907 2.16029C9.8861 2.10732 9.8083 2.08083 9.70567 2.08083H9.26866V2.67675ZM17.8992 4.70786C17.5682 4.70786 17.2636 4.63006 16.9855 4.47445C16.7107 4.31885 16.4922 4.10366 16.33 3.82887C16.1677 3.55408 16.0866 3.24454 16.0866 2.90022C16.0866 2.55591 16.1677 2.24636 16.33 1.97158C16.4922 1.69679 16.7107 1.48325 16.9855 1.33096C17.2636 1.17536 17.5682 1.09756 17.8992 1.09756C18.2303 1.09756 18.5332 1.17536 18.808 1.33096C19.0828 1.48325 19.2996 1.69679 19.4586 1.97158C19.6208 2.24636 19.7019 2.55591 19.7019 2.90022C19.7019 3.24454 19.6208 3.55408 19.4586 3.82887C19.2996 4.10366 19.0811 4.31885 18.803 4.47445C18.5283 4.63006 18.227 4.70786 17.8992 4.70786ZM17.8992 3.67989C18.1177 3.67989 18.2866 3.61037 18.4058 3.47132C18.5249 3.32896 18.5845 3.13859 18.5845 2.90022C18.5845 2.65854 18.5249 2.46818 18.4058 2.32913C18.2866 2.18677 18.1177 2.11559 17.8992 2.11559C17.6774 2.11559 17.5069 2.18677 17.3877 2.32913C17.2685 2.46818 17.2089 2.65854 17.2089 2.90022C17.2089 3.13859 17.2685 3.32896 17.3877 3.47132C17.5069 3.61037 17.6774 3.67989 17.8992 3.67989ZM27.2457 1.15715V3.42662C27.2457 3.84708 27.1348 4.16656 26.913 4.38507C26.6945 4.60026 26.3866 4.70786 25.9893 4.70786C25.5622 4.70786 25.2229 4.59033 24.9713 4.35527C24.7197 4.12021 24.5939 3.77756 24.5939 3.3273H25.6814C25.6814 3.46966 25.7046 3.57064 25.7509 3.63023C25.7973 3.68651 25.8602 3.71465 25.9397 3.71465C26.0059 3.71465 26.0572 3.69313 26.0936 3.65009C26.13 3.60706 26.1482 3.53256 26.1482 3.42662V1.15715H27.2457ZM33.517 2.03614V2.46818H34.6096V3.29751H33.517V3.79411H34.7585V4.6731H32.4146V1.15715H34.7585V2.03614H33.517ZM39.7676 2.91016C39.7676 2.56253 39.8371 2.25299 39.9762 1.98151C40.1185 1.71003 40.3205 1.4998 40.582 1.35082C40.8436 1.19853 41.1515 1.12239 41.5057 1.12239C41.8103 1.12239 42.0818 1.18032 42.3201 1.2962C42.5618 1.40876 42.7571 1.56933 42.9061 1.7779C43.0584 1.98648 43.1594 2.22981 43.209 2.50791H42.047C41.994 2.39203 41.9179 2.30265 41.8186 2.23974C41.7226 2.17353 41.6116 2.14042 41.4858 2.14042C41.3004 2.14042 41.1531 2.20995 41.0439 2.349C40.9379 2.48804 40.8849 2.6751 40.8849 2.91016C40.8849 3.14521 40.9379 3.33227 41.0439 3.47132C41.1531 3.61037 41.3004 3.67989 41.4858 3.67989C41.6116 3.67989 41.7226 3.64844 41.8186 3.58554C41.9179 3.51932 41.994 3.42828 42.047 3.3124H43.209C43.1594 3.5905 43.0584 3.83384 42.9061 4.04241C42.7571 4.25098 42.5618 4.41321 42.3201 4.52908C42.0818 4.64164 41.8103 4.69793 41.5057 4.69793C41.1515 4.69793 40.8436 4.62344 40.582 4.47445C40.3205 4.32216 40.1185 4.11028 39.9762 3.8388C39.8371 3.56733 39.7676 3.25778 39.7676 2.91016ZM51.06 1.15715V2.03117H50.1264V4.6731H49.0239V2.03117H48.1002V1.15715H51.06Z" fill="#F4F4F4"/>
<path fill-rule="evenodd" clip-rule="evenodd" d="M16.6958 8.9436H27.1966L18.9619 12.3058L22.0035 12.5319H24.4851L18.408 20.5743V15.2019L18.4079 15.201L18.4076 20.5748L14.843 25.2922V25.2851V10.7021V10.6737H14.8432C14.8564 9.69705 15.5516 8.94406 16.6948 8.9436H16.6958ZM18.4076 20.5748L18.408 20.5743V25.2922H18.4074L18.4076 20.5748ZM24.4851 12.5319L27.1966 8.9436H27.2653V8.9448C28.2616 8.97964 29.0582 9.76892 29.0582 10.7375C29.0582 11.706 28.2616 12.4953 27.2653 12.5301V12.5319H24.4851Z" fill="#F4F4F4"/>
<path fill-rule="evenodd" clip-rule="evenodd" d="M1.85943 8.94236C0.831946 8.96933 0.0078125 9.76183 0.0078125 10.7355C0.0078125 11.7092 0.831946 12.5017 1.85943 12.5287V12.53H10.8779V12.5293C10.8839 12.5294 10.8899 12.5294 10.8959 12.5294C11.9777 12.5294 12.8546 11.7263 12.8546 10.7355C12.8546 9.74479 11.9777 8.94165 10.8959 8.94165C10.8899 8.94165 10.8839 8.94168 10.8779 8.94173V8.94165H1.91354H1.85943V8.94236Z" fill="#F4F4F4"/>
<path fill-rule="evenodd" clip-rule="evenodd" d="M36.4514 27.9997C36.4391 28 36.4267 28.0001 36.4143 28.0001C35.4252 28.0001 34.6233 27.197 34.6233 26.2062C34.6233 25.2155 35.4252 24.4124 36.4143 24.4124C36.4267 24.4124 36.4391 24.4125 36.4514 24.4127V24.4124H48.3807V24.4151C48.413 24.4133 48.4455 24.4124 48.4783 24.4124C49.4382 24.4124 50.2164 25.2155 50.2164 26.2062C50.2164 27.197 49.4382 28.0001 48.4783 28.0001C48.4455 28.0001 48.413 27.9992 48.3807 27.9973V28.0007H36.4514V27.9997Z" fill="#1CB1D9"/>
<path fill-rule="evenodd" clip-rule="evenodd" d="M75.9727 8.89311C76.5184 8.65709 77.2127 8.73243 77.7577 9.04914L77.7588 9.04697L89.2798 14.9187C90.9934 15.5365 95.3001 17.5321 94.9813 21.9015C94.9747 21.9909 94.9677 22.0774 94.96 22.161C94.9483 22.3548 94.9256 22.5454 94.8931 22.7331C94.8005 23.3645 94.6672 23.7765 94.5084 24.0227C94.2508 24.634 93.9033 25.2097 93.5134 25.7524C92.6912 26.8968 91.3157 27.3577 90.0282 27.688C88.7406 28.0183 87.3397 27.7496 86.1458 27.1223C84.9739 26.5066 83.5776 24.6555 83.0927 23.9523L83.0886 23.9549L75.2307 11.2727L75.2341 11.2706C75.2244 11.254 75.215 11.2371 75.2059 11.22C74.765 10.3948 75.1121 9.35458 75.9727 8.89311ZM85.8334 22.2281L85.837 22.2259C85.846 22.2395 85.865 22.2697 85.8924 22.3134C86.1329 22.6973 87.0244 24.12 87.5576 24.4002C88.1515 24.7122 88.92 25.1036 89.5605 24.9393C90.201 24.775 91.0485 24.3685 91.4576 23.7992C91.8666 23.2298 92.0664 22.5819 92.0664 21.8547H92.0682C92.026 21.6378 91.8413 20.8237 91.3196 20.0367C91.1384 19.7633 90.1682 19.2452 89.4277 18.8497L89.4276 18.8496L89.4275 18.8496C89.2592 18.7597 89.1027 18.6761 88.97 18.6032L87.6255 17.8829L81.0715 14.5427L85.8334 22.2281Z" fill="#F4F4F4"/>
<path fill-rule="evenodd" clip-rule="evenodd" d="M57.0589 -0.000793457C58.0411 -0.000793457 58.8386 0.759923 58.8498 1.7024H58.8693L58.8693 9.13845L58.8875 8.90102C59.0812 10.6979 59.9987 12.2182 62.1017 12.4426H67.9286H67.9292H67.9522V12.4429C68.2217 12.4487 68.5364 12.5553 68.7852 12.8143C69.7326 13.8005 70.7455 16.1122 71.415 17.6403C71.4656 17.7558 71.5143 17.8668 71.5608 17.9725L74.9118 24.2978L74.8959 24.3064C75.3302 25.1585 74.9923 26.213 74.1304 26.6751C73.2584 27.1427 72.1801 26.8268 71.7221 25.9695C71.6474 25.8296 71.5938 25.6838 71.5602 25.5359L67.48 17.827L67.7312 18.4627C66.6811 16.4221 65.6275 16.2232 64.6232 16.0337L64.6089 16.031H61.7619C60.0231 16.4518 59.3124 16.921 58.8693 19.4751L58.8693 25.635H58.8481C58.8493 25.6619 58.8499 25.6889 58.8499 25.7161C58.8499 26.7069 58.048 27.51 57.0589 27.51C56.0697 27.51 55.2678 26.7069 55.2678 25.7161C55.2678 25.627 55.2743 25.5393 55.2869 25.4537L55.2869 1.97452C55.2743 1.89222 55.2678 1.80803 55.2678 1.72238C55.2678 0.7707 56.0697 -0.000793457 57.0589 -0.000793457Z" fill="#F4F4F4"/>
</svg>
